<?xml version="1.0" encoding="UTF-8"?>
<svg width="480" height="360" viewBox="0 0 480 360" fill="none" xmlns="http://www.w3.org/2000/svg">
  <path d="M341.259 314.805C341.259 314.805 348.168 317.682 351.046 309.051C353.923 300.419 357.955 286.334 357.955 286.334L345.291 284.610L337.227 306.173L341.259 314.805Z" fill="#F2F2F2"/>
  <path d="M357.955 286.334L358.956 297.273C358.956 297.273 364.312 303.295 364.312 306.173L367.189 310.204C367.189 310.204 369.501 308.481 367.756 304.450C366.01 300.419 361.978 290.365 361.978 290.365L357.955 286.334Z" fill="#F2F2F2"/>
  <path d="M341.259 165.838C341.259 165.838 334.917 184.805 332.606 193.437C330.295 202.068 333.173 219.278 333.173 219.278C333.173 219.278 328.574 249.94 326.263 253.404C323.952 256.868 322.231 267.489 322.231 267.489L337.794 273.511C337.794 273.511 342.970 248.217 343.816 244.186C344.661 240.154 359.106 197.468 359.106 197.468L368.593 228.13C368.593 228.13 373.192 249.94 371.448 256.868C369.701 263.795 368.593 270.067 368.593 270.067L384.156 272.378C384.156 272.378 394.776 235.057 393.599 223.877C392.421 212.697 387.034 178.216 387.034 178.216L379.557 164.977L341.259 165.838Z" fill="#2F2E41"/>
  <path d="M321.378 267.98L326.263 283.543C326.263 283.543 344.084 295.289 339.486 297.033C334.887 298.777 326.829 297.033 326.829 297.033C326.829 297.033 311.309 297.033 309.566 293.568C307.822 290.104 313.564 276.047 313.564 276.047L321.378 267.98Z" fill="#2F2E41"/>
  <path d="M367.762 272.378L369.046 277.813C369.046 277.813 370.79 287.866 375.958 291.331C381.126 294.796 386.862 303.995 379.368 304.562C371.874 305.129 367.762 302.818 367.762 302.818C367.762 302.818 358.531 298.219 358.531 296.475C358.531 294.731 359.124 278.513 359.124 278.513L367.762 272.378Z" fill="#2F2E41"/>
  <path d="M354.5 95.5001C365.546 95.5001 374.5 86.546 374.5 75.5001C374.5 64.4542 365.546 55.5001 354.5 55.5001C343.454 55.5001 334.5 64.4542 334.5 75.5001C334.5 86.546 343.454 95.5001 354.5 95.5001Z" fill="#FFBB88"/>
  <path d="M379.557 116.749C379.557 116.749 376.656 135.136 373.76 137.447C370.863 139.758 350.179 135.136 350.179 135.136C350.179 135.136 355.908 115.006 355.908 114.438C355.908 113.871 379.557 116.749 379.557 116.749Z" fill="#FFBB88"/>
  <path d="M357.09 123.11C357.09 123.11 354.777 118.493 350.179 119.62C345.581 120.747 336.949 123.11 336.949 123.11L331.429 141.479C331.429 141.479 333.173 173.956 334.35 177.421C335.527 180.885 334.917 190.938 334.917 190.938C334.917 190.938 370.908 191.923 375.506 187.891C380.105 183.86 376.088 132.977 376.088 132.977L357.09 123.11Z" fill="#FF7A00"/>
  <path d="M342.437 126.008L336.949 123.11C336.949 123.11 321.953 123.677 319.642 128.843C317.331 134.009 317.331 146.644 317.331 146.644L309.531 170.972L303.509 200.95C303.509 200.95 315.581 209.867 321.78 208.123C327.979 206.38 329.722 201.781 329.722 201.781C329.722 201.781 338.354 175.571 336.61 170.972C334.866 166.373 342.437 126.008 342.437 126.008Z" fill="#3D8C95"/>
  <path d="M375.506 124.287L376.088 132.977C376.088 132.977 391.65 142.465 393.394 146.496C395.138 150.528 400.885 166.94 398.574 170.972C396.263 175.004 388.211 203.172 388.211 203.172C388.211 203.172 390.499 214.339 384.598 214.906C378.697 215.473 369.475 215.473 368.615 212.576C367.756 209.68 374.873 170.404 374.873 170.404L365.952 141.479L375.506 124.287Z" fill="#3D8C95"/>
  <path d="M382.509 171.539C382.509 171.539 373.309 171.539 371.565 174.437C369.822 177.335 367.511 186.533 371.565 186.533C375.619 186.533 385.869 185.356 385.869 183.046C385.869 180.735 382.509 171.539 382.509 171.539Z" fill="#FFBB88"/>
  <path d="M311.309 167.507C311.309 167.507 304.12 176.138 305.864 177.882C307.607 179.626 320.652 190.938 324.684 190.938C328.715 190.938 333.881 186.339 332.137 183.46C330.394 180.582 324.107 169.251 322.93 168.073C321.753 166.896 311.309 167.507 311.309 167.507Z" fill="#FFBB88"/>
  <path d="M359.959 76.6608C362.244 76.0996 363.513 73.4511 363.513 73.4511C363.513 73.4511 360.921 72.6649 358.636 73.2261C356.351 73.7872 355.082 76.4357 355.082 76.4357C355.082 76.4357 357.674 77.222 359.959 76.6608Z" fill="#3F3D56"/>
  <path d="M354.997 73.3248C357.283 72.7636 358.552 70.1151 358.552 70.1151C358.552 70.1151 355.959 69.3289 353.674 69.8901C351.389 70.4512 350.12 73.0997 350.12 73.0997C350.12 73.0997 352.712 73.886 354.997 73.3248Z" fill="#3F3D56"/>
  <path d="M359.829 65.5484C358.67 64.76 357.247 64.3628 355.805 64.4276C354.363 64.4924 352.985 65.0157 351.909 65.913C349.327 67.8117 348.661 71.9315 345.514 72.9065C343.41 73.5569 340.985 72.3915 339.071 70.9183C337.157 69.445 335.521 67.61 333.371 66.7574C329.591 65.2872 325.062 66.9667 322.665 70.288C320.268 73.6093 319.929 78.0932 320.866 82.0072C321.803 85.9212 323.853 89.4574 325.64 93.0201C326.355 94.4075 327.009 95.9211 328.256 96.9218C331.797 99.5439 336.88 96.3999 341.164 97.0854C342.645 97.3222 344.061 97.8865 345.325 98.7419C346.588 99.5973 347.67 100.729 348.498 102.06C349.328 103.39 349.886 104.887 350.135 106.448C350.385 108.008 350.32 109.602 349.943 111.133C349.691 112.159 349.251 113.196 348.028 113.623C347.517 113.78 346.972 113.804 346.448 113.695C345.924 113.585 345.441 113.345 345.044 112.998C344.856 112.829 344.722 112.606 344.662 112.361C344.603 112.115 344.621 111.858 344.714 111.624C344.889 111.143 345.112 110.68 345.378 110.242C346.401 108.39 347.42 106.536 348.439 104.681" fill="#3F3D56"/>
  <path d="M352.527 83.9003C352.527 83.9003 359.565 89.8314 356.366 93.0307C353.166 96.2301 347.805 91.9851 347.805 91.9851L349.329 85.4858L352.527 83.9003Z" fill="#FFBB88"/>
  <path d="M365.385 94.2818C364.2 97.3626 364.503 102.704 365.951 105.518C366.725 106.267 367.632 106.869 368.628 107.296L372.975 108.785L383.119 112.026C383.119 112.026 401.214 116.93 397.913 110.891C394.612 104.851 386.908 105.472 386.908 105.472L376.764 100.736L373.58 97.5021L368.583 93.1229L365.385 94.2818Z" fill="#FFBB88"/>
  <path d="M370.781 106.27L368.249 108.531L374.2 115.036L375.735 112.949L370.781 106.27Z" fill="#3D8C95"/>
  <path d="M357.611 98.5213L344.202 116.01L347.646 118.898L357.707 104.444L357.611 98.5213Z" fill="#3D8C95"/>
  <path d="M381.953 64.2707L371.975 60.7085C371.975 60.7085 362.498 59.9175 357.884 66.6468C353.271 73.376 344.115 89.341 344.115 89.341L346.938 94.6023L352.527 83.9003L363.967 79.1459L375.932 90.1775L390.384 112.69L397.3 106.557L381.953 64.2707Z" fill="#3D8C95"/>
  <path opacity="0.1" d="M349.983 141.479H335.449L336.949 123.11L350.179 135.724L349.983 141.479Z" fill="black"/>
  <path opacity="0.1" d="M376.088 132.977L375.506 124.287L391.65 142.465L382.438 145.343L376.088 132.977Z" fill="black"/>
  
  <!-- Additional decorative elements -->
  <circle cx="310" cy="110" r="15" fill="#FF7A00" opacity="0.3"/>
  <circle cx="400" cy="200" r="20" fill="#3D8C95" opacity="0.2"/>
  <circle cx="340" cy="240" r="8" fill="#FF7A00" opacity="0.2"/>
  
  <!-- Abstract shapes -->
  <path d="M280 70 L300 50 L320 70 L300 90 Z" fill="#3D8C95" opacity="0.1"/>
  <path d="M410 100 C420 90 430 90 440 100 C450 110 450 120 440 130 C430 140 420 140 410 130 C400 120 400 110 410 100 Z" fill="#FF7A00" opacity="0.1"/>
</svg>
